<svg width="78" height="58" viewBox="0 0 78 58" fill="none" xmlns="http://www.w3.org/2000/svg">
  <g id="39e46fa267e3d155e9919bd42cd48553">
    <path id="482238cdabcb95a51b642a98f9ac40b5" d="M18.7109 28.3781C18.6886 28.3906 18.6638 28.3972 18.6386 28.3974H18.4941C18.2903 28.3928 18.0879 28.3603 17.8918 28.3008C17.6702 28.2477 17.4527 28.1766 17.2413 28.0881C17.0521 28.0187 16.8704 27.9279 16.6992 27.8174C16.5902 27.7513 16.4973 27.6586 16.4281 27.5468C16.4161 27.3663 16.4101 27.1794 16.4101 26.9861V26.4222C16.419 24.9131 16.5196 23.4062 16.7112 21.9111C16.9448 20.1897 17.2767 18.4851 17.705 16.8071C17.7532 16.6267 17.8014 16.4011 17.8496 16.1304C17.8978 15.8598 17.958 15.5569 18.0303 15.2218C17.6471 15.5727 17.3017 15.9683 17.0003 16.4011C16.5492 17.0095 16.1271 17.6419 15.7355 18.2958C15.3018 19.0176 14.8621 19.8167 14.4164 20.6931C13.9707 21.5696 13.5691 22.4524 13.2118 23.3418C12.8504 24.2311 12.5372 25.114 12.2722 25.9904C12.0353 26.7823 11.8778 27.5989 11.8023 28.4264C11.3766 28.3153 10.97 28.1326 10.5977 27.8851C10.4999 27.8126 10.4195 27.7165 10.363 27.6045C10.3065 27.4926 10.2755 27.3679 10.2725 27.2407C10.2924 26.9032 10.3594 26.5709 10.4712 26.2547C10.6037 25.825 10.7905 25.3224 11.0314 24.7467C11.2723 24.171 11.5674 23.5265 11.9168 22.8133C12.2661 22.0916 12.6516 21.3182 13.0732 20.4933C13.5551 19.5524 14.0249 18.6696 14.4827 17.8447C14.9404 17.0198 15.3982 16.2679 15.8559 15.5891C16.2584 14.9826 16.6959 14.4036 17.166 13.8556C17.5405 13.4172 17.9727 13.0394 18.4489 12.7342C18.6766 12.7456 18.9017 12.7911 19.1175 12.8696C19.4014 12.9557 19.6791 13.0634 19.9487 13.1918C20.1995 13.3059 20.4413 13.4416 20.6715 13.5978C20.8883 13.7267 21.0088 13.8341 21.0328 13.92C20.8006 14.443 20.5995 14.9811 20.4305 15.5311C20.2016 16.2529 19.9667 17.0713 19.7258 17.9864C19.4849 18.9016 19.262 19.8747 19.0572 20.9058C18.8565 21.924 18.6939 22.9036 18.5694 23.8444C18.8464 23.1356 19.1657 22.4009 19.5271 21.6404C19.8884 20.88 20.28 20.1196 20.7016 19.3591C21.1031 18.5987 21.5187 17.864 21.9484 17.1551C22.378 16.4462 22.7996 15.8018 23.2132 15.2218C23.6148 14.6289 23.9942 14.1133 24.3516 13.6751C24.635 13.3145 24.9564 12.9902 25.3093 12.7084C25.537 12.7198 25.762 12.7653 25.9779 12.8438C26.2617 12.9299 26.5395 13.0376 26.8091 13.166C27.0599 13.2801 27.3016 13.4159 27.5318 13.572C27.7487 13.7009 27.8691 13.8083 27.8932 13.8942C27.4629 14.7466 27.1235 15.6481 26.8813 16.5816C26.5922 17.6384 26.3453 18.7469 26.1405 19.9069C25.9357 21.0669 25.7851 22.2204 25.6888 23.3676C25.5924 24.5018 25.5442 25.52 25.5442 26.4222V27.3889C25.5442 27.7111 25.5562 28.0462 25.5803 28.3942C25.3777 28.3888 25.1761 28.3629 24.978 28.3169C24.7454 28.2773 24.5159 28.2191 24.2914 28.1429C24.0838 28.0711 23.8823 27.9805 23.6891 27.8722C23.5375 27.8038 23.4063 27.6924 23.3096 27.55C23.2976 27.3696 23.2915 27.1827 23.2915 26.9893V26.4222C23.3004 24.9131 23.401 23.4062 23.5927 21.9111C23.8263 20.1897 24.1582 18.4851 24.5865 16.8071C24.6347 16.6267 24.6889 16.3818 24.7491 16.0724C24.8094 15.7631 24.8696 15.4409 24.9298 15.1058C24.4892 15.3772 24.0976 15.7308 23.7734 16.1498C23.2958 16.7318 22.8609 17.3523 22.4724 18.0058C22.0387 18.7276 21.6051 19.5331 21.1714 20.4224C20.7377 21.3118 20.3522 22.2204 20.0149 23.1484C19.6828 24.0473 19.3933 24.9636 19.1476 25.8938C18.9265 26.7046 18.7803 27.5367 18.7109 28.3781ZM27.8179 25.6521C27.8179 25.5361 27.824 25.3943 27.836 25.2268C27.8481 25.0592 27.8842 24.8272 27.9444 24.5308C27.9926 24.2343 28.0528 23.8799 28.1251 23.4674C28.1974 23.055 28.2978 22.5588 28.4263 21.9788C28.4504 21.8499 28.5046 21.6437 28.5889 21.3601C28.6794 21.057 28.787 20.76 28.9111 20.4708C29.0563 20.1475 29.2255 19.8371 29.4171 19.5428C29.6049 19.2677 29.8532 19.0464 30.1399 18.8983C30.4281 18.9903 30.702 19.1271 30.953 19.3043C31.3 19.5202 31.5966 19.8177 31.8203 20.1743C31.5589 20.4871 31.3231 20.8235 31.1156 21.1797C30.9349 21.5148 30.7663 21.8628 30.6097 22.2237C30.4531 22.5846 30.3145 22.9583 30.1941 23.345C30.0736 23.7317 29.9351 24.1377 29.7785 24.563C29.646 24.9239 29.5255 25.2977 29.4171 25.6843C29.3184 26.0036 29.2577 26.3349 29.2364 26.6703C29.2395 26.8317 29.2334 26.9931 29.2183 27.1537C29.2183 27.2568 29.1882 27.3083 29.128 27.3083C29.0234 27.2935 28.9218 27.2608 28.8268 27.2117C28.6651 27.1363 28.5133 27.0389 28.3751 26.9217C28.2309 26.7617 28.1074 26.5818 28.0077 26.3868C27.8801 26.1663 27.8143 25.9114 27.8179 25.6521ZM31.2692 17.2743C31.2751 17.1565 31.2933 17.0398 31.3234 16.9263C31.2518 16.8421 31.1965 16.7436 31.1608 16.6363C31.1271 16.5237 31.1089 16.4065 31.1066 16.2883C31.1095 16.133 31.1216 15.978 31.1427 15.8243C31.1789 15.6095 31.221 15.3947 31.2692 15.1799C31.3174 14.9651 31.3776 14.7266 31.4499 14.4646C31.5222 14.2068 31.5945 13.9748 31.6667 13.7686C31.8479 13.7776 32.0257 13.8235 32.1908 13.9039C32.4183 13.9847 32.6365 14.0928 32.8413 14.2261C33.056 14.3515 33.2578 14.5005 33.4436 14.6708C33.5997 14.7989 33.7394 14.9484 33.8592 15.1154C33.7267 15.2572 33.552 15.457 33.3352 15.7148C33.1121 15.9675 32.901 16.2321 32.7027 16.5074C32.502 16.7781 32.3152 17.0359 32.1426 17.2808C32.0226 17.4462 31.9139 17.6206 31.8173 17.8028C31.6761 17.7787 31.5444 17.7116 31.4379 17.6094C31.3887 17.5671 31.3484 17.5143 31.3193 17.4544C31.2903 17.3945 31.2732 17.3288 31.2692 17.2614V17.2743ZM34.9976 17.5966C35.3504 17.73 35.6584 17.9722 35.883 18.2926C36.1517 18.6341 36.3563 19.028 36.4853 19.4526C36.3145 19.8872 36.1132 20.3073 35.883 20.7092C35.6059 21.199 35.3288 21.7017 35.0518 22.2172C34.7747 22.7328 34.5217 23.2161 34.2929 23.6672C34.1095 24.0161 33.9813 24.395 33.9134 24.7886C34.1142 24.5737 34.325 24.3224 34.5458 24.0346C34.7667 23.7467 34.9956 23.4567 35.2325 23.1646C35.4613 22.8681 35.6722 22.6039 35.8649 22.3719C36.0576 22.1399 36.2082 21.9594 36.3166 21.8306C36.5455 21.5728 36.8166 21.2763 37.1298 20.9412C37.4372 20.599 37.763 20.2762 38.1055 19.9746C38.4316 19.6824 38.7824 19.4235 39.1535 19.2012C39.4406 19.0052 39.771 18.894 40.1112 18.879C40.2564 18.8747 40.4008 18.9036 40.5347 18.9636C40.6687 19.0236 40.7892 19.1134 40.8882 19.227C41.0916 19.4275 41.2626 19.6627 41.3942 19.923C41.3942 19.9488 41.346 19.9874 41.2496 20.039C41.103 20.1353 40.9743 20.2598 40.8701 20.4063C40.6562 20.7134 40.4629 21.0365 40.2919 21.373C40.0912 21.7726 39.8904 22.2108 39.6896 22.6877C39.4967 23.1521 39.3337 23.6301 39.2017 24.1183C39.0774 24.5509 39.0105 24.9999 39.003 25.4523C38.9801 25.6655 39.0179 25.8811 39.1114 26.071C39.157 26.1173 39.211 26.1532 39.27 26.1764C39.3291 26.1997 39.3919 26.2099 39.4547 26.2063C39.5979 26.204 39.7391 26.1711 39.8703 26.1097C39.9782 26.055 40.0946 26.0222 40.2136 26.013C40.2419 26.0324 40.2662 26.0579 40.2848 26.0879C40.3035 26.1178 40.3162 26.1516 40.322 26.187C40.3553 26.2524 40.3738 26.3252 40.3763 26.3997C40.2683 26.499 40.1536 26.5895 40.0329 26.6703C39.8985 26.7617 39.7598 26.8456 39.6173 26.9217C39.4772 26.997 39.3323 27.0616 39.1837 27.115C39.0683 27.163 38.946 27.1891 38.8223 27.1923C38.5247 27.2032 38.2286 27.1438 37.9549 27.0183C37.7501 26.925 37.5701 26.7789 37.4309 26.593C37.3053 26.3996 37.2191 26.18 37.1779 25.9486C37.1289 25.6811 37.1047 25.4091 37.1057 25.1366C37.107 24.9619 37.1191 24.7875 37.1418 24.6146C37.1735 24.3853 37.2218 24.1591 37.2864 23.9379C37.3586 23.6672 37.459 23.3514 37.5875 22.9906C37.716 22.6297 37.8847 22.185 38.0935 21.6566C37.9247 21.7336 37.7616 21.824 37.6056 21.9272C37.2469 22.1561 36.9186 22.4357 36.6298 22.7586C36.0637 23.3386 35.5517 23.9121 35.0939 24.4792C34.6362 25.0463 34.1814 25.6693 33.7297 26.3481C33.4647 26.7477 33.2298 27.0828 33.025 27.3534C32.8915 27.5733 32.7197 27.7637 32.519 27.9141C32.2729 27.7687 32.0766 27.5429 31.9589 27.2697C31.8382 26.9982 31.7472 26.7128 31.6878 26.419C31.694 26.1075 31.7242 25.7971 31.7782 25.491C31.8505 25.1172 31.9408 24.7048 32.0492 24.2537C32.1576 23.8026 32.3022 23.3192 32.4829 22.8037C32.6515 22.301 32.8383 21.7983 33.043 21.2957C33.3995 20.3761 33.8161 19.4845 34.2898 18.6277C34.4781 18.2415 34.7164 17.8857 34.9976 17.5708V17.5966ZM45.776 17.9188C46.0654 17.9317 46.3488 18.0108 46.6072 18.1508C46.9132 18.3003 47.1941 18.5028 47.4384 18.7501C47.3828 18.2629 47.3044 17.7789 47.2035 17.3001C47.1123 16.8112 46.9792 16.3323 46.806 15.8694C46.6116 15.3163 46.3822 14.7781 46.1193 14.2583C45.8302 13.6783 45.4688 13.0146 45.0352 12.267C45.0901 12.1177 45.1696 11.9802 45.2701 11.861C45.4029 11.7061 45.5479 11.5637 45.7037 11.4357C45.8638 11.3001 46.0329 11.1774 46.2097 11.0683C46.367 10.974 46.538 10.9086 46.7156 10.875C47.091 11.3341 47.4127 11.8405 47.6733 12.383C47.986 13.0038 48.2518 13.6503 48.4684 14.3163C48.6994 15.008 48.8747 15.7194 48.9924 16.443C49.1211 17.1371 49.1877 17.8427 49.1912 18.5503C49.1885 19.2462 49.1158 19.9398 48.9743 20.619C48.8406 21.3322 48.6471 22.031 48.3961 22.707C48.1595 23.3675 47.8756 24.0074 47.5468 24.621C47.2402 25.1931 46.8832 25.7326 46.4807 26.2321C46.1416 26.6754 45.7462 27.0658 45.3062 27.3921C44.9418 27.6804 44.5222 27.8785 44.0775 27.9721C43.3649 27.9246 42.689 27.6176 42.1621 27.1021C41.9372 26.8436 41.7636 26.539 41.6518 26.2067C41.54 25.8744 41.4923 25.5213 41.5116 25.1688C41.5171 24.6858 41.5778 24.2053 41.6923 23.7381C41.8247 23.2247 41.9908 22.7218 42.1892 22.2333C42.4049 21.72 42.6524 21.2227 42.9301 20.7447C43.2 20.2828 43.502 19.8433 43.8335 19.43C44.1311 19.0713 44.4576 18.7413 44.8093 18.444C45.0916 18.1952 45.4217 18.0159 45.776 17.9188ZM43.8396 27.2181C44.2932 26.9933 44.6799 26.6387 44.9569 26.1934C45.357 25.6171 45.6954 24.9945 45.9657 24.3374C46.2686 23.5954 46.5076 22.8253 46.6795 22.0368C46.8706 21.2603 46.9717 20.4617 46.9807 19.6588V19.2528C46.9801 19.2008 46.9751 19.1491 46.9656 19.0981C46.6614 19.262 46.3855 19.4799 46.1495 19.7426C45.8387 20.082 45.5499 20.4438 45.2851 20.8252C44.9873 21.2438 44.7156 21.683 44.472 22.1399C44.215 22.6168 43.9861 23.0937 43.7854 23.5706C43.5922 24.0139 43.4321 24.4729 43.3065 24.9432C43.1978 25.3193 43.138 25.7097 43.1288 26.1032C43.1108 26.7606 43.3667 27.1279 43.8305 27.2181H43.8396ZM44.5714 34.8612C44.6075 35.076 44.6316 35.2307 44.6437 35.3252C44.6707 35.4301 44.6829 35.5387 44.6798 35.6474C44.6814 36.0646 44.5884 36.4759 44.4088 36.8461C44.263 37.1822 44.0144 37.455 43.704 37.6194C43.4607 37.269 43.1609 36.9679 42.8186 36.7301C42.4615 36.4681 42.0724 36.26 41.6622 36.1114C41.2389 35.9484 40.8008 35.8328 40.3552 35.7667C39.9251 35.6908 39.49 35.652 39.0542 35.6507C38.6501 35.6477 38.2466 35.6866 37.8495 35.7667C37.515 35.8231 37.1876 35.9204 36.8738 36.0567C36.6246 36.1539 36.397 36.3053 36.2052 36.5013C36.0542 36.6667 35.9699 36.8888 35.9703 37.12C36.0369 37.4604 36.2087 37.7669 36.4582 37.99C36.7891 38.3071 37.1459 38.5918 37.5243 38.8407C37.9459 39.1113 38.4097 39.382 38.9156 39.6527C39.4216 39.9233 39.9235 40.1811 40.4214 40.426C41.0358 40.7353 41.5658 41.0253 42.0115 41.296C42.4188 41.5232 42.7907 41.8167 43.1138 42.166C43.3981 42.4676 43.6198 42.8299 43.7643 43.2293C43.9191 43.6944 43.9926 44.1859 43.9811 44.6793C43.987 45.3125 43.885 45.9414 43.68 46.5353C43.4802 47.0942 43.1723 47.6015 42.7765 48.024C42.3791 48.4582 41.8981 48.7946 41.3671 49.01C40.7755 49.2629 40.1429 49.3877 39.5059 49.3773C38.7672 49.37 38.0325 49.2617 37.3195 49.0551C36.5546 48.8435 35.8149 48.5386 35.115 48.1465C34.4903 47.8127 33.9175 47.3779 33.4165 46.8576C33.0073 46.4439 32.767 45.8742 32.7479 45.2722C32.7633 44.9341 32.8304 44.601 32.9467 44.2862C33.129 43.8231 33.3859 43.3978 33.7056 43.0296C33.7881 43.5316 33.9869 44.0035 34.2838 44.4022C34.7224 45.0024 35.2693 45.502 35.892 45.8716C36.5304 46.2733 37.2175 46.579 37.9339 46.7802C38.5844 46.9526 39.2514 47.0435 39.9215 47.0509C40.4806 47.071 41.0383 46.9792 41.5658 46.7802C41.9321 46.6342 42.2692 46.4156 42.5596 46.1358C42.7753 45.9172 42.9474 45.6541 43.0656 45.3624C43.1466 45.1654 43.2014 44.9571 43.2282 44.7438C43.205 44.4612 43.0823 44.1985 42.8849 44.0091C42.6386 43.7298 42.3519 43.4947 42.0356 43.3131C41.6397 43.0546 41.2293 42.8222 40.8069 42.6171C40.3371 42.3851 39.8492 42.1531 39.3433 41.9211C38.5844 41.5602 37.9278 41.2251 37.3737 40.9158C36.895 40.6391 36.4413 40.3155 36.0185 39.9491C35.7005 39.6565 35.4369 39.3023 35.2415 38.9051C35.0792 38.5161 34.999 38.0937 35.0066 37.6678C35.0067 36.9348 35.217 36.2196 35.6089 35.6184C36.0477 34.9494 36.6649 34.4373 37.3797 34.1491C37.7728 33.9663 38.1855 33.8364 38.6084 33.7624C39.0385 33.6865 39.4736 33.6477 39.9095 33.6464C40.6978 33.6453 41.4825 33.7624 42.2404 33.9944C43.0357 34.2237 43.8146 34.5134 44.5714 34.8612ZM52.1997 44.8952C51.9227 45.8361 51.6456 46.6954 51.3685 47.473C51.1111 48.1992 50.8155 48.9092 50.4831 49.5997C50.188 50.225 49.8497 50.826 49.4712 51.3977C49.1069 51.9512 48.7042 52.4746 48.2666 52.9637C47.7722 53.5336 47.192 54.0107 46.55 54.375C46.0077 54.6967 45.3992 54.8694 44.7792 54.8777C44.4748 54.8772 44.1715 54.8383 43.8757 54.7617C43.5948 54.7002 43.3218 54.6028 43.0626 54.4717C42.8154 54.3667 42.5841 54.2234 42.3759 54.0463C42.1949 53.9196 42.0459 53.7469 41.9423 53.5437C41.9476 53.4582 41.9737 53.3758 42.0181 53.3046C42.0625 53.2333 42.1236 53.1758 42.1952 53.1377C42.3398 53.2794 42.4603 53.3869 42.5566 53.4599C42.6512 53.5342 42.752 53.5989 42.8578 53.6532C42.9506 53.7081 43.0533 53.7411 43.159 53.7499C43.2729 53.7638 43.3876 53.7703 43.5023 53.7692C44.2147 53.7644 44.9109 53.5407 45.508 53.1248C46.2297 52.6417 46.8608 52.0188 47.3691 51.2881C48.015 50.4031 48.5552 49.4354 48.9773 48.4074C49.49 47.192 49.9012 45.9304 50.2061 44.6374L49.6278 45.5848C49.3989 45.9586 49.146 46.3323 48.8689 46.7061C48.6016 47.056 48.3118 47.3854 48.0016 47.6921C47.7616 47.9543 47.472 48.1586 47.1523 48.2914C46.947 48.2739 46.7446 48.2284 46.55 48.1561C46.3377 48.0895 46.1351 47.9919 45.9477 47.8661C45.7659 47.7362 45.6017 47.5801 45.4598 47.4021C45.3124 47.2263 45.2088 47.0135 45.1586 46.7835C45.1553 46.4865 45.1673 46.1896 45.1948 45.8941C45.2225 45.6403 45.2648 45.3884 45.3213 45.1401C45.4502 44.5774 45.607 44.0224 45.7911 43.4774C46.0081 42.8582 46.2554 42.2516 46.5319 41.6601C46.8084 41.0769 47.1224 40.5149 47.4715 39.9781C47.7699 39.5073 48.1358 39.0897 48.5557 38.7408C48.6769 38.7433 48.7978 38.7563 48.9171 38.7794C49.0705 38.7942 49.2219 38.8266 49.3688 38.8761C49.5241 38.9271 49.6752 38.9918 49.8206 39.0694C49.9625 39.1321 50.0914 39.224 50.2 39.3401C49.8776 39.7429 49.5875 40.1741 49.3327 40.629C48.7563 41.6394 48.2607 42.7001 47.851 43.7997C47.7908 43.9414 47.7185 44.1477 47.6342 44.4183C47.5498 44.689 47.4655 44.9726 47.3812 45.269C47.3089 45.5654 47.2427 45.8554 47.1824 46.139C47.13 46.3605 47.0997 46.5873 47.0921 46.8157C47.088 46.8949 47.1003 46.9741 47.1282 47.0477C47.1559 47.0884 47.1861 47.1272 47.2186 47.1637C47.5469 47.0571 47.845 46.8644 48.0859 46.603C48.5521 46.1184 48.9645 45.5778 49.3146 44.9919C49.6037 44.5279 49.8688 44.0703 50.1097 43.6192C50.3506 43.1681 50.5855 42.7041 50.8144 42.2272L51.5552 40.7966C51.8082 40.3068 52.0793 39.8041 52.3684 39.2886C52.5384 39.2901 52.7079 39.3095 52.8743 39.3466C53.0523 39.3844 53.2274 39.4361 53.3983 39.5012C53.5501 39.5452 53.6959 39.6102 53.832 39.6946C53.9461 39.7402 54.0491 39.8129 54.1332 39.9072C53.7597 40.7665 53.4104 41.5978 53.0851 42.4012C52.7599 43.2046 52.4607 44.036 52.1877 44.8952H52.1997ZM57.1718 38.5152C57.5247 38.6487 57.8327 38.8909 58.0573 39.2112C58.326 39.5527 58.5305 39.9466 58.6596 40.3712C58.4888 40.8058 58.2875 41.2259 58.0573 41.6279C57.7802 42.1177 57.5031 42.6203 57.2261 43.1359C56.949 43.6514 56.696 44.1348 56.4671 44.5859C56.2838 44.9347 56.1555 45.3136 56.0877 45.7072C56.2885 45.4924 56.4993 45.2411 56.7201 44.9532C56.941 44.6654 57.1698 44.3754 57.4067 44.0832C57.6356 43.7868 57.8464 43.5226 58.0392 43.2906C58.2319 43.0586 58.3825 42.8781 58.4909 42.7492C58.7198 42.4914 58.9908 42.195 59.3041 41.8599C59.6115 41.5176 59.9373 41.1949 60.2798 40.8932C60.6058 40.601 60.9567 40.3421 61.3278 40.1199C61.6149 39.9239 61.9453 39.8127 62.2855 39.7977C62.4307 39.7934 62.575 39.8222 62.709 39.8822C62.843 39.9422 62.9635 40.032 63.0625 40.1457C63.2659 40.3462 63.4369 40.5814 63.5685 40.8417C63.5685 40.8674 63.5203 40.9061 63.4239 40.9577C63.2773 41.054 63.1486 41.1785 63.0444 41.325C62.8305 41.6321 62.6372 41.9551 62.4662 42.2917C62.2654 42.6912 62.0647 43.1294 61.8639 43.6063C61.671 44.0708 61.508 44.5488 61.376 45.037C61.2517 45.4695 61.1848 45.9186 61.1773 46.371C61.1544 46.5842 61.1922 46.7998 61.2857 46.9897C61.3313 47.036 61.3853 47.0718 61.4443 47.0951C61.5034 47.1184 61.5662 47.1285 61.629 47.125C61.7721 47.1226 61.9134 47.0898 62.0446 47.0283C62.1525 46.9736 62.2689 46.9409 62.3879 46.9317C62.4162 46.9511 62.4405 46.9766 62.4591 47.0065C62.4778 47.0365 62.4904 47.0702 62.4963 47.1057C62.5296 47.1711 62.5481 47.2439 62.5505 47.3183C62.4426 47.4177 62.3279 47.5082 62.2072 47.589C62.0728 47.6804 61.9341 47.7643 61.7916 47.8403C61.6515 47.9157 61.5066 47.9803 61.358 48.0337C61.2426 48.0816 61.1203 48.1078 60.9966 48.111C60.699 48.1219 60.4029 48.0625 60.1292 47.937C59.9244 47.8437 59.7444 47.6975 59.6052 47.5117C59.4796 47.3182 59.3934 47.0987 59.3522 46.8672C59.3032 46.5998 59.279 46.3278 59.28 46.0552C59.2813 45.8806 59.2934 45.7062 59.3161 45.5332C59.3478 45.304 59.3961 45.0778 59.4607 44.8566C59.5329 44.5859 59.6333 44.2701 59.7618 43.9092C59.8903 43.5483 60.059 43.1037 60.2678 42.5752C60.099 42.6522 59.9359 42.7427 59.7799 42.8459C59.4211 43.0748 59.0929 43.3544 58.8041 43.6772C58.2379 44.2572 57.726 44.8308 57.2682 45.3979C56.8105 45.965 56.3527 46.5966 55.8949 47.2926C55.6299 47.6921 55.395 48.0272 55.1902 48.2979C55.0568 48.5178 54.885 48.7081 54.6843 48.8586C54.4381 48.7131 54.2419 48.4873 54.1241 48.2141C54.0034 47.9427 53.9125 47.6572 53.8531 47.3634C53.8593 47.052 53.8895 46.7416 53.9434 46.4354C54.0157 46.0617 54.1061 45.6492 54.2145 45.1981C54.3229 44.747 54.4674 44.2637 54.6481 43.7481C54.8168 43.2454 55.0035 42.7428 55.2083 42.2401C55.5647 41.3205 55.9813 40.429 56.4551 39.5721C56.6425 39.1862 56.8797 38.8304 57.1598 38.5152H57.1718ZM64.0985 44.4892C64.0979 43.7572 64.2395 43.033 64.5141 42.3626C64.79 41.6882 65.1685 41.0676 65.6344 40.5259C66.0893 39.9994 66.6276 39.563 67.2245 39.237C67.7974 38.9098 68.4363 38.7372 69.0857 38.7343C69.61 38.6973 70.1275 38.8772 70.5312 39.237C70.7057 39.4233 70.8411 39.6473 70.9284 39.894C71.0156 40.1407 71.0527 40.4044 71.0372 40.6677C71.0374 40.9629 70.9947 41.2564 70.9107 41.5377C70.8448 41.7972 70.7434 42.0447 70.6095 42.2723C70.498 42.4803 70.3509 42.6639 70.1759 42.8137C70.0306 42.9338 69.8534 43.0015 69.6699 43.007C69.5111 43.0029 69.3558 42.9564 69.2182 42.8717C69.0749 42.7698 68.952 42.6384 68.8568 42.485C69.6599 41.6988 70.0614 40.9834 70.0614 40.339C70.0614 39.9652 69.9229 39.7783 69.6458 39.7783C69.3191 39.8107 69.0067 39.9377 68.7424 40.1457C68.3537 40.4157 68.0012 40.7409 67.6943 41.1123C67.1791 41.7182 66.7709 42.4191 66.4897 43.181C66.2237 43.9347 66.0889 44.7341 66.0922 45.5397C66.0922 46.5837 66.309 47.2088 66.7427 47.415C66.9584 47.3798 67.1702 47.3215 67.3751 47.241C67.6398 47.1402 67.8992 47.024 68.1521 46.893C68.4291 46.7383 68.7122 46.5643 69.0013 46.371C69.2905 46.1777 69.5796 45.9715 69.8687 45.7523C69.9212 45.8008 69.9642 45.8599 69.9953 45.9263C70.0263 45.9927 70.0447 46.065 70.0494 46.139C69.8336 46.422 69.5981 46.687 69.3447 46.9317C69.0814 47.1879 68.8038 47.4268 68.5135 47.647C68.2422 47.8422 67.9585 48.0167 67.6642 48.169C67.4452 48.3051 67.2073 48.403 66.9595 48.459C66.5613 48.4202 66.1774 48.281 65.8392 48.053C65.4834 47.8279 65.1707 47.5326 64.9176 47.183C64.6607 46.8048 64.4577 46.3878 64.3153 45.9457C64.1706 45.4758 64.0984 44.9839 64.1015 44.4892H64.0985Z" fill="url(#cfb2fc52c0729457a6fd60aa1181a01b)"></path>
    <path id="00b031cd8cc6bb36c2e2feb35c7a6d2c" d="M64.472 28.0978V25.9228C64.706 25.8315 64.906 25.6613 65.0419 25.438C65.1778 25.2146 65.2423 24.9501 65.2257 24.6842C65.2091 24.4182 65.1122 24.1653 64.9497 23.9633C64.7871 23.7613 64.5677 23.6212 64.3244 23.5641L62.9722 21.0218L62.2976 21.4342L63.5023 23.6898C63.3089 23.8126 63.1531 23.9928 63.0535 24.2086L60.1052 23.1162C60.0411 22.7854 59.8723 22.4883 59.6274 22.275C59.3825 22.0617 59.0763 21.9452 58.7605 21.9452C58.4447 21.9452 58.1386 22.0617 57.8937 22.275C57.6487 22.4883 57.48 22.7854 57.4159 23.1162L54.7837 24.0088C54.6373 23.8437 54.4548 23.7201 54.2528 23.649C54.0507 23.578 53.8353 23.5616 53.6258 23.6015C53.4164 23.6414 53.2195 23.7362 53.0528 23.8775C52.886 24.0188 52.7546 24.2022 52.6704 24.4112C52.5861 24.6201 52.5516 24.8482 52.57 25.075C52.5884 25.3017 52.659 25.52 52.7757 25.7104C52.8923 25.9007 53.0512 26.0572 53.2382 26.1656C53.4252 26.2741 53.6344 26.3313 53.8471 26.332C54.0026 26.3319 54.1567 26.3014 54.3019 26.2418L55.4583 27.7272C55.3231 27.9955 55.2434 28.2917 55.2247 28.5959C55.206 28.9 55.2487 29.2049 55.3499 29.4898L54.329 30.5563C54.1569 30.4549 53.9667 30.3938 53.7708 30.3772C53.575 30.3606 53.3781 30.3889 53.1933 30.4601C53.0085 30.5314 52.84 30.6439 52.699 30.7903C52.558 30.9367 52.4479 31.1135 52.3758 31.3091C52.3037 31.5046 52.2714 31.7143 52.2811 31.9242C52.2907 32.1342 52.3421 32.3395 52.4317 32.5265C52.5214 32.7135 52.6472 32.878 52.8009 33.0089C52.9546 33.1397 53.1327 33.2341 53.3231 33.2856L53.6243 35.0062L54.3892 34.8516L54.1091 33.2404C54.2968 33.1693 54.4679 33.0557 54.6109 32.9076C54.7539 32.7594 54.8655 32.5801 54.938 32.3818C55.0106 32.1834 55.0424 31.9707 55.0314 31.758C55.0204 31.5454 54.9667 31.3377 54.8741 31.1492L55.7776 30.1987C56.1346 30.5982 56.6253 30.83 57.1418 30.8431L58.2169 32.5122C58.0575 32.73 57.9584 32.9913 57.9308 33.2664C57.9032 33.5414 57.9483 33.8192 58.0609 34.0683C58.1735 34.3173 58.3491 34.5275 58.5678 34.6751C58.7865 34.8227 59.0395 34.9017 59.2981 34.9031C59.6629 34.9014 60.0122 34.7452 60.2695 34.4686C60.5269 34.192 60.6714 33.8176 60.6714 33.4273C60.6745 33.3812 60.6745 33.3349 60.6714 33.2888L63.683 31.0622C63.8148 31.105 63.9518 31.1267 64.0895 31.1267C64.4383 31.1257 64.775 30.9899 65.0376 30.7442C65.3001 30.4985 65.4708 30.1596 65.5181 29.7898C65.5654 29.4201 65.4862 29.0446 65.295 28.7324C65.1039 28.4202 64.8137 28.1926 64.478 28.0913L64.472 28.0978ZM53.6574 32.4993C53.5383 32.4993 53.4218 32.4615 53.3228 32.3907C53.2237 32.3199 53.1465 32.2193 53.1009 32.1015C53.0553 31.9837 53.0434 31.8542 53.0667 31.7292C53.0899 31.6041 53.1473 31.4893 53.2315 31.3992C53.3157 31.3091 53.4231 31.2477 53.5399 31.2228C53.6567 31.198 53.7778 31.2107 53.8879 31.2595C53.998 31.3083 54.092 31.3909 54.1582 31.4969C54.2244 31.6028 54.2597 31.7274 54.2597 31.8549C54.2597 31.9395 54.2441 32.0233 54.2139 32.1015C54.1836 32.1797 54.1392 32.2507 54.0833 32.3106C54.0274 32.3704 53.961 32.4179 53.8879 32.4503C53.8148 32.4827 53.7365 32.4993 53.6574 32.4993ZM62.7674 28.9549L59.1204 28.3684C59.0576 27.9846 58.8966 27.6269 58.6552 27.3351C58.4139 27.0433 58.1016 26.8288 57.7532 26.7154L58.5301 24.8884C58.6066 24.9041 58.6842 24.9116 58.762 24.911C59.0372 24.9106 59.3059 24.822 59.5335 24.6566C59.7611 24.4911 59.9372 24.2565 60.0389 23.983L62.9782 25.0721C63.0257 25.264 63.1155 25.4409 63.2403 25.5878C63.365 25.7348 63.521 25.8474 63.695 25.9163V28.0978C63.4909 28.1607 63.3022 28.2706 63.142 28.4198C62.9817 28.569 62.8539 28.7538 62.7674 28.9613V28.9549ZM64.0835 25.1527C64.0105 25.1533 63.9389 25.1306 63.8779 25.0875C63.817 25.0444 63.7695 24.9829 63.7414 24.9107C63.7133 24.8386 63.7059 24.7591 63.7203 24.6824C63.7346 24.6058 63.77 24.5355 63.8218 24.4804C63.8737 24.4254 63.9397 24.3882 64.0115 24.3735C64.0832 24.3588 64.1574 24.3673 64.2246 24.3979C64.2918 24.4286 64.3489 24.48 64.3887 24.5455C64.4285 24.6111 64.4491 24.6878 64.4479 24.766C64.4479 24.8697 64.4096 24.9692 64.3414 25.0428C64.2731 25.1165 64.1804 25.1583 64.0835 25.1591V25.1527ZM58.762 22.7908C58.8812 22.7908 58.9976 22.8286 59.0967 22.8994C59.1957 22.9702 59.2729 23.0708 59.3185 23.1886C59.3641 23.3064 59.376 23.4359 59.3528 23.5609C59.3295 23.686 59.2722 23.8008 59.1879 23.8909C59.1037 23.981 58.9964 24.0424 58.8795 24.0673C58.7627 24.0921 58.6416 24.0794 58.5315 24.0306C58.4215 23.9818 58.3274 23.8992 58.2612 23.7933C58.195 23.6873 58.1597 23.5627 58.1597 23.4352C58.1613 23.2654 58.2255 23.1032 58.3382 22.9837C58.451 22.8642 58.6033 22.7972 58.762 22.7972V22.7908ZM57.4821 23.9701C57.5557 24.1805 57.6719 24.3709 57.8224 24.5276L56.9189 26.6478C56.5684 26.698 56.2373 26.8495 55.9613 27.086L54.9012 25.7294C55.0443 25.5018 55.1208 25.2337 55.121 24.9593C55.1255 24.8982 55.1255 24.8368 55.121 24.7757L57.4821 23.9701ZM53.3442 24.9368C53.3448 24.8298 53.375 24.7255 53.4309 24.6369C53.4869 24.5483 53.5661 24.4794 53.6586 24.439C53.7511 24.3985 53.8527 24.3882 53.9507 24.4095C54.0486 24.4307 54.1385 24.4825 54.209 24.5584C54.2794 24.6342 54.3273 24.7306 54.3466 24.8356C54.3659 24.9405 54.3557 25.0492 54.3173 25.1479C54.2789 25.2466 54.2141 25.331 54.1309 25.3903C54.0478 25.4497 53.9501 25.4813 53.8501 25.4813C53.7193 25.4806 53.5937 25.426 53.4994 25.3288C53.4052 25.2316 53.3496 25.0993 53.3442 24.9593V24.9368ZM56.0155 28.739C56.019 28.4888 56.0916 28.2452 56.2242 28.039C56.3567 27.8328 56.5432 27.6731 56.7603 27.58C56.9774 27.4868 57.2154 27.4644 57.4444 27.5156C57.6734 27.5667 57.8831 27.6891 58.0472 27.8674C58.2114 28.0457 58.3226 28.2719 58.3669 28.5177C58.4113 28.7634 58.3868 29.0177 58.2964 29.2485C58.2061 29.4794 58.0541 29.6765 57.8593 29.8152C57.6646 29.9539 57.4359 30.0279 57.202 30.0279C57.0448 30.0275 56.8892 29.9937 56.7442 29.9286C56.5993 29.8634 56.4678 29.7681 56.3575 29.6483C56.2471 29.5284 56.1601 29.3863 56.1014 29.2303C56.0427 29.0742 56.0135 28.9072 56.0155 28.739ZM59.3282 34.075C59.2091 34.075 59.0926 34.0372 58.9936 33.9664C58.8945 33.8956 58.8173 33.7949 58.7717 33.6772C58.7262 33.5594 58.7142 33.4298 58.7375 33.3048C58.7607 33.1798 58.8181 33.065 58.9023 32.9749C58.9865 32.8847 59.0939 32.8234 59.2107 32.7985C59.3275 32.7736 59.4486 32.7864 59.5587 32.8352C59.6688 32.8839 59.7628 32.9665 59.829 33.0725C59.8952 33.1785 59.9305 33.3031 59.9305 33.4306C59.9306 33.5174 59.9143 33.6034 59.8825 33.6833C59.8507 33.7632 59.8042 33.8354 59.7457 33.8956C59.6872 33.9558 59.6179 34.0027 59.542 34.0335C59.4661 34.0644 59.3852 34.0785 59.3041 34.075H59.3282ZM59.3282 31.9548C59.1755 31.955 59.0239 31.9823 58.8795 32.0353L58.0031 30.6723C58.2821 30.5383 58.5284 30.3372 58.7227 30.0845C58.9171 29.8319 59.0542 29.5346 59.1234 29.2159L62.6831 29.7894C62.719 30.0772 62.8296 30.3485 63.0023 30.5724L60.3943 32.5058C60.2642 32.3307 60.0982 32.19 59.9092 32.0944C59.7202 31.9989 59.5131 31.9511 59.3041 31.9548H59.3282ZM64.0835 30.2889C63.9517 30.2895 63.8228 30.2483 63.7129 30.1704C63.6031 30.0926 63.5173 29.9816 63.4665 29.8515C63.4156 29.7215 63.402 29.5782 63.4274 29.4398C63.4527 29.3015 63.5158 29.1743 63.6088 29.0744C63.7018 28.9745 63.8203 28.9063 63.9495 28.8786C64.0787 28.8509 64.2127 28.8648 64.3345 28.9186C64.4563 28.9724 64.5604 29.0636 64.6337 29.1808C64.7069 29.298 64.7461 29.4358 64.7461 29.5768C64.7464 29.6701 64.7296 29.7627 64.6965 29.849C64.6634 29.9354 64.6146 30.014 64.5531 30.0801C64.4915 30.1463 64.4183 30.1988 64.3377 30.2346C64.2572 30.2704 64.1708 30.2889 64.0835 30.2889Z" fill="url(#82f2b8bd9ca7a508e8f5cf53f3be4462)"></path>
  </g>
  <defs>
    <linearGradient id="cfb2fc52c0729457a6fd60aa1181a01b" x1="23.7222" y1="18.009" x2="59.3915" y2="39.6492" gradientUnits="userSpaceOnUse">
      <stop stop-color="white"></stop>
      <stop offset="1" stop-color="#E7E7E7"></stop>
    </linearGradient>
    <linearGradient id="82f2b8bd9ca7a508e8f5cf53f3be4462" x1="2352.7" y1="1236.97" x2="2935.52" y2="1236.97" gradientUnits="userSpaceOnUse">
      <stop stop-color="white"></stop>
      <stop offset="1" stop-color="#DFDFDF"></stop>
    </linearGradient>
  </defs>
</svg>