<svg width="15" height="15" viewBox="0 0 15 15" fill="none" xmlns="http://www.w3.org/2000/svg">
    <g clip-path="url(#clip0_315_197)">
        <path d="M1.37723 14.3721L1.57742 13.5726L1.02538 13.3546L0.646181 13.9796C0.646181 13.9796 0.855247 14.5466 0.623047 14.9999C0.623228 15 0.913783 14.5051 1.37723 14.3721ZM1.00636 14.0052C1.07432 13.9774 1.15264 14.0092 1.18071 14.0759C1.209 14.1426 1.17677 14.2195 1.10881 14.2473C1.04086 14.2751 0.962541 14.2434 0.934473 14.1766C0.905906 14.1096 0.938185 14.0328 1.00636 14.0052Z" fill="white"/>
        <path d="M7.16905 5.09858C5.57932 6.40241 3.49813 9.08812 1.73311 12.2254L1.73211 12.2242L1.42358 12.7686L1.75258 12.8952L1.92642 12.4372C2.86803 10.7399 5.4225 6.30739 10.0933 3.3624C10.0933 3.3624 11.8323 2.32671 13.5456 0.894354C13.1285 1.24304 12.3056 1.68009 11.8594 1.96205C10.6883 2.70197 9.24309 3.39735 7.16905 5.09858Z" fill="white"/>
        <path d="M1.50301 9.74999C1.14151 11.0277 1.1622 12.0008 1.30209 12.2682H1.52076C2.12455 11.0176 5.03259 6.48733 6.84266 5.06928C8.718 3.59998 10.1646 2.74506 11.3813 2.12158C11.8085 1.90269 12.2468 1.6062 12.642 1.30899C13.122 0.93052 13.6085 0.525698 14.0345 0.129523L12.7996 0.939393L13.3502 0.0972441L12.299 1.16616L12.9831 0C11.3648 0.146002 9.86302 0.955645 9.86302 0.955645C9.26221 1.66827 8.77835 2.80193 8.77835 2.80193C8.7616 2.23508 9.1455 1.37672 9.1455 1.37672C8.86183 1.50624 7.78404 2.12185 7.78404 2.12185C7.25685 2.55918 7.0931 3.70909 7.0931 3.70909C6.99287 3.25551 7.34327 2.38112 7.34327 2.38112C5.82472 3.25578 4.74005 4.74572 4.74005 4.74572C3.98926 6.21946 4.60658 7.36937 4.37289 7.09407C4.1392 6.81877 4.18945 5.81464 4.18945 5.81464C2.60416 7.33713 2.43747 8.06574 2.43747 8.06574C2.17054 8.71358 1.93685 10.4466 1.93685 10.4466C1.78664 10.2846 1.93685 9.37768 1.93685 9.37768C1.55299 10.1875 1.73666 10.9487 1.73666 10.9487C1.55322 10.8837 1.50301 9.74999 1.50301 9.74999Z" fill="white"/>
        <path d="M14.0347 0.64245C14.0347 0.64245 13.4243 1.23393 12.6422 1.82192C11.4162 2.78888 10.2358 3.57933 10.2358 3.57933C5.6112 6.31204 3.03432 10.7716 2.18262 12.3007H2.63543C2.79546 12.1724 3.03581 12.0757 4.03949 11.7851C5.3076 11.418 6.06405 10.6515 6.06405 10.6515C6.06405 10.6515 4.90722 11.2993 4.36205 11.2346C3.81689 11.1699 3.08434 11.3749 3.08434 11.3749C3.08434 11.3749 2.80461 11.2454 4.18404 11.0403C5.56348 10.8352 7.83278 9.29125 7.83278 9.29125C7.83278 9.29125 6.96505 9.64754 6.56467 9.61503C6.16428 9.58253 5.17419 9.61503 5.17419 9.61503C5.8304 9.46382 6.4423 9.55029 7.44349 9.17232C8.44468 8.79434 8.38904 8.82685 8.38904 8.82685C9.52369 8.44887 9.99502 7.27212 9.99502 7.27212C9.79876 7.34772 8.2999 7.53117 7.67818 7.34772C7.05641 7.16428 5.99714 7.34772 5.99714 7.34772C6.99833 7.01307 7.22093 7.16428 7.46545 7.15346C7.71019 7.14264 8.50014 7.20738 10.0687 6.66765C11.6372 6.12792 12.0821 5.45839 12.0821 5.45839L11.0243 5.59973C11.715 5.48352 12.4936 5.02649 12.4936 5.02649C12.0152 5.15602 11.2698 5.22076 11.2698 5.22076C12.1486 5.02649 12.6382 4.75658 12.6382 4.75658C13.4614 4.13038 13.6505 3.20185 13.6505 3.20185C12.4823 3.60124 11.5592 3.4178 11.5592 3.4178C13.1612 3.30996 13.6061 2.89948 13.8285 2.80246C14.0511 2.70522 14.1427 2.30312 14.1427 2.30312C13.3333 2.59467 12.4155 2.64315 12.4155 2.64315C13.4083 2.48927 14.2591 1.98716 14.2591 1.98716V1.48455C13.8752 1.70322 13.1998 1.87335 13.1998 1.87335L14.2509 1.19323C14.31 0.852964 14.0347 0.64245 14.0347 0.64245Z" fill="white"/>
        <path d="M1.06616 13.1547L1.69137 13.4052L1.80781 13.1284L1.18265 12.878L1.06616 13.1547Z" fill="white"/>
        <path d="M8.01481 12.9232C5.94914 13.9163 3.96469 14.5932 1.32552 14.6819C1.07928 14.6902 1.07806 14.9365 1.32552 14.9281C3.68645 14.8488 5.65093 14.3413 7.54547 13.4534C9.65596 12.464 11.5944 11.6349 14.2379 11.3532C14.4817 11.3271 14.3781 11.09 14.136 11.1158C11.7948 11.3656 9.8926 12.0206 8.01481 12.9232Z" fill="white"/>
    </g>
    <defs>
        <clipPath id="clip0_315_197">
            <rect width="15" height="15" fill="white"/>
        </clipPath>
    </defs>
</svg>
