<svg width="15" height="15" viewBox="0 0 15 15" fill="none" xmlns="http://www.w3.org/2000/svg">
    <g id="721ee60041cd8d5ba3f17f8b478e9098">
        <path id="04d203f2ee8d858a007bf877368d52bb" d="M14.796 12.9707L11.8749 10.0496C11.743 9.91772 11.5643 9.84447 11.3768 9.84447H10.8992C11.7079 8.81021 12.1884 7.50934 12.1884 6.0942C12.1884 2.72774 9.46065 0 6.0942 0C2.72774 0 0 2.72774 0 6.0942C0 9.46065 2.72774 12.1884 6.0942 12.1884C7.50934 12.1884 8.81021 11.7079 9.84447 10.8992V11.3768C9.84447 11.5643 9.91772 11.743 10.0496 11.8749L12.9707 14.796C13.2461 15.0714 13.6914 15.0714 13.9639 14.796L14.7931 13.9668C15.0685 13.6914 15.0685 13.2461 14.796 12.9707ZM6.0942 9.84447C4.02276 9.84447 2.34392 8.16857 2.34392 6.0942C2.34392 4.02275 4.01983 2.34392 6.0942 2.34392C8.16564 2.34392 9.84447 4.01982 9.84447 6.0942C9.84447 8.16564 8.16857 9.84447 6.0942 9.84447Z" fill="white" fill-opacity="0.8"></path>
    </g>
</svg>
